<svg width="83" height="30" viewBox="0 0 83 30"  fill="black" xmlns="http://www.w3.org/2000/svg">
<path d="M6.26 8.04C7.72667 8.04 9.01333 8.32667 10.12 8.9C11.24 9.47333 12.1 10.2933 12.7 11.36C13.3133 12.4133 13.62 13.64 13.62 15.04C13.62 16.44 13.3133 17.6667 12.7 18.72C12.1 19.76 11.24 20.5667 10.12 21.14C9.01333 21.7133 7.72667 22 6.26 22H1.38V8.04H6.26ZM6.16 19.62C7.62667 19.62 8.76 19.22 9.56 18.42C10.36 17.62 10.76 16.4933 10.76 15.04C10.76 13.5867 10.36 12.4533 9.56 11.64C8.76 10.8133 7.62667 10.4 6.16 10.4H4.18V19.62H6.16ZM26.0159 16.22C26.0159 16.62 25.9893 16.98 25.9359 17.3H17.8359C17.9026 18.1 18.1826 18.7267 18.6759 19.18C19.1693 19.6333 19.7759 19.86 20.4959 19.86C21.5359 19.86 22.2759 19.4133 22.7159 18.52H25.7359C25.4159 19.5867 24.8026 20.4667 23.8959 21.16C22.9893 21.84 21.8759 22.18 20.5559 22.18C19.4893 22.18 18.5293 21.9467 17.6759 21.48C16.8359 21 16.1759 20.3267 15.6959 19.46C15.2293 18.5933 14.9959 17.5933 14.9959 16.46C14.9959 15.3133 15.2293 14.3067 15.6959 13.44C16.1626 12.5733 16.8159 11.9067 17.6559 11.44C18.4959 10.9733 19.4626 10.74 20.5559 10.74C21.6093 10.74 22.5493 10.9667 23.3759 11.42C24.2159 11.8733 24.8626 12.52 25.3159 13.36C25.7826 14.1867 26.0159 15.14 26.0159 16.22ZM23.1159 15.42C23.1026 14.7 22.8426 14.1267 22.3359 13.7C21.8293 13.26 21.2093 13.04 20.4759 13.04C19.7826 13.04 19.1959 13.2533 18.7159 13.68C18.2493 14.0933 17.9626 14.6733 17.8559 15.42H23.1159ZM30.8597 7.2V22H28.0597V7.2H30.8597ZM35.0461 9.6C34.5528 9.6 34.1394 9.44667 33.8061 9.14C33.4861 8.82 33.3261 8.42667 33.3261 7.96C33.3261 7.49333 33.4861 7.10667 33.8061 6.8C34.1394 6.48 34.5528 6.32 35.0461 6.32C35.5394 6.32 35.9461 6.48 36.2661 6.8C36.5994 7.10667 36.7661 7.49333 36.7661 7.96C36.7661 8.42667 36.5994 8.82 36.2661 9.14C35.9461 9.44667 35.5394 9.6 35.0461 9.6ZM36.4261 10.92V22H33.6261V10.92H36.4261ZM43.8125 19.42L46.6125 10.92H49.5925L45.4925 22H42.0925L38.0125 10.92H41.0125L43.8125 19.42ZM61.4652 16.22C61.4652 16.62 61.4385 16.98 61.3852 17.3H53.2852C53.3518 18.1 53.6318 18.7267 54.1252 19.18C54.6185 19.6333 55.2252 19.86 55.9452 19.86C56.9852 19.86 57.7252 19.4133 58.1652 18.52H61.1852C60.8652 19.5867 60.2518 20.4667 59.3452 21.16C58.4385 21.84 57.3252 22.18 56.0052 22.18C54.9385 22.18 53.9785 21.9467 53.1252 21.48C52.2852 21 51.6252 20.3267 51.1452 19.46C50.6785 18.5933 50.4452 17.5933 50.4452 16.46C50.4452 15.3133 50.6785 14.3067 51.1452 13.44C51.6118 12.5733 52.2652 11.9067 53.1052 11.44C53.9452 10.9733 54.9118 10.74 56.0052 10.74C57.0585 10.74 57.9985 10.9667 58.8252 11.42C59.6652 11.8733 60.3118 12.52 60.7652 13.36C61.2318 14.1867 61.4652 15.14 61.4652 16.22ZM58.5652 15.42C58.5518 14.7 58.2918 14.1267 57.7852 13.7C57.2785 13.26 56.6585 13.04 55.9252 13.04C55.2318 13.04 54.6452 13.2533 54.1652 13.68C53.6985 14.0933 53.4118 14.6733 53.3052 15.42H58.5652ZM66.3089 12.64C66.6689 12.0533 67.1356 11.5933 67.7089 11.26C68.2956 10.9267 68.9622 10.76 69.7089 10.76V13.7H68.9689C68.0889 13.7 67.4222 13.9067 66.9689 14.32C66.5289 14.7333 66.3089 15.4533 66.3089 16.48V22H63.5089V10.92H66.3089V12.64ZM82.1948 10.92L75.3348 27.24H72.3548L74.7548 21.72L70.3148 10.92H73.4548L76.3148 18.66L79.2148 10.92H82.1948Z"/>
</svg>
