<svg width="33" height="29" viewBox="0 0 33 29" fill="none" xmlns="http://www.w3.org/2000/svg">
<path fill-rule="evenodd" clip-rule="evenodd" d="M0.0500488 2.75002C0.0500488 2.12677 0.297637 1.52903 0.738348 1.08832C1.17906 0.647613 1.77679 0.400024 2.40005 0.400024H30.6001C31.2233 0.400024 31.821 0.647613 32.2618 1.08832C32.7025 1.52903 32.9501 2.12677 32.9501 2.75002C32.9501 3.37328 32.7025 3.97101 32.2618 4.41173C31.821 4.85244 31.2233 5.10002 30.6001 5.10002H2.40005C1.77679 5.10002 1.17906 4.85244 0.738348 4.41173C0.297637 3.97101 0.0500488 3.37328 0.0500488 2.75002ZM0.0500488 14.5C0.0500488 13.8768 0.297637 13.279 0.738348 12.8383C1.17906 12.3976 1.77679 12.15 2.40005 12.15H30.6001C31.2233 12.15 31.821 12.3976 32.2618 12.8383C32.7025 13.279 32.9501 13.8768 32.9501 14.5C32.9501 15.1233 32.7025 15.721 32.2618 16.1617C31.821 16.6024 31.2233 16.85 30.6001 16.85H2.40005C1.77679 16.85 1.17906 16.6024 0.738348 16.1617C0.297637 15.721 0.0500488 15.1233 0.0500488 14.5ZM0.0500488 26.25C0.0500488 25.6268 0.297637 25.029 0.738348 24.5883C1.17906 24.1476 1.77679 23.9 2.40005 23.9H16.5C17.1233 23.9 17.721 24.1476 18.1618 24.5883C18.6025 25.029 18.85 25.6268 18.85 26.25C18.85 26.8733 18.6025 27.471 18.1618 27.9117C17.721 28.3524 17.1233 28.6 16.5 28.6H2.40005C1.77679 28.6 1.17906 28.3524 0.738348 27.9117C0.297637 27.471 0.0500488 26.8733 0.0500488 26.25Z" fill="white"/>
</svg>
