<svg width="40" height="40" viewBox="0 0 40 40" fill="none" xmlns="http://www.w3.org/2000/svg">
<path d="M33.3359 20C33.3359 14.4531 29.9453 9.70313 25.1328 7.69531L23.8516 10.7734C27.4609 12.2812 30 15.8437 30 20C30 24.1641 27.4609 27.7188 23.8438 29.2266L25.125 32.3047C29.9453 30.2969 33.3359 25.5469 33.3359 20ZM26.6641 20C26.6641 17.2266 24.9687 14.8516 22.5625 13.8516L21.2812 16.9297C22.4844 17.4297 23.3281 18.6172 23.3281 20.0078C23.3281 21.3906 22.4844 22.5781 21.2812 23.0859L22.5625 26.1641C24.9687 25.1484 26.6641 22.7734 26.6641 20V20ZM27.6953 1.53906L26.4062 4.61719C32.4297 7.125 36.6641 13.0625 36.6641 20C36.6641 26.9297 32.4297 32.875 26.4062 35.3828L27.6875 38.4609C34.9219 35.4453 40 28.3203 40 20C40 11.6797 34.9219 4.55469 27.6953 1.53906V1.53906ZM0 11.6641V28.3281H6.66406L18.3359 40V0L6.66406 11.6641H0Z" fill="#0049FF"/>
</svg>
