<svg width="13" height="14" viewBox="0 0 13 14" fill="none" xmlns="http://www.w3.org/2000/svg">
<path d="M5.26 0.0399997C6.72667 0.0399997 8.01333 0.326666 9.12 0.899999C10.24 1.47333 11.1 2.29333 11.7 3.36C12.3133 4.41333 12.62 5.64 12.62 7.04C12.62 8.44 12.3133 9.66667 11.7 10.72C11.1 11.76 10.24 12.5667 9.12 13.14C8.01333 13.7133 6.72667 14 5.26 14H0.38V0.0399997H5.26ZM5.16 11.62C6.62667 11.62 7.76 11.22 8.56 10.42C9.36 9.62 9.76 8.49333 9.76 7.04C9.76 5.58667 9.36 4.45333 8.56 3.64C7.76 2.81333 6.62667 2.4 5.16 2.4H3.18V11.62H5.16Z" fill="black"/>
</svg>
